<?xml version="1.0" encoding="UTF-8"?>
<svg width="288px" height="288px" viewBox="0 0 288 288" version="1.1" xmlns="http://www.w3.org/2000/svg" xmlns:xlink="http://www.w3.org/1999/xlink">
    <!-- Generator: Sketch 40.3 (33839) - http://www.bohemiancoding.com/sketch -->
    <title>Fuel Intro Screen</title>
    <desc>Created with Sketch.</desc>
    <defs></defs>
    <g id="Icons" stroke="none" stroke-width="1" fill="none" fill-rule="evenodd">
        <g id="Fuel-Intro-Screen">
            <circle id="Oval" fill="#FFFFFF" cx="144" cy="144" r="139"></circle>
            <g id="1498729028_fuel" transform="translate(95.000000, 72.000000)" fill="#4990E2">
                <g id="svg6584">
                    <path d="M8.45047304,0.970207179 C3.97155958,0.970207179 0.36593192,4.57591051 0.36593192,9.05474247 L0.36593192,138.407311 C0.36593192,142.449578 4.40820248,146.491846 8.45047304,146.491846 L81.2113567,146.491846 C85.2536272,146.491846 89.2958978,142.449578 89.2958978,138.407311 L89.2958978,97.9846327 L93.3381703,97.9846327 C97.3804408,97.9846327 97.3804408,102.026901 97.3804408,102.026901 L97.3804408,118.195972 C97.3804408,126.280507 101.422711,130.322776 109.507254,130.322776 C117.591798,130.322776 121.634068,126.280507 121.634068,118.195972 L121.634068,73.7310268 C121.634068,65.6464915 105.464984,57.5619562 105.464984,49.4774209 L105.464984,25.2238131 L97.3804408,25.2238131 L89.2958978,17.1392778 L89.2958978,9.05474247 C89.2958978,4.57591051 85.690274,0.970207179 81.2113567,0.970207179 L8.45047304,0.970207179 Z M16.5350161,17.1392778 L73.1268136,17.1392778 L73.1268136,49.4774209 L16.5350161,49.4774209 L16.5350161,17.1392778 Z M89.2958978,41.3928856 L97.3804408,41.3928856 L97.3804408,53.5196876 C97.3804408,61.6042229 113.549527,69.6887582 113.549527,77.7732954 L113.549527,118.195972 C113.549527,122.238241 109.507254,122.238241 109.507254,122.238241 C109.507254,122.238241 105.464984,122.238241 105.464984,118.195972 L105.464984,97.9846327 C105.464984,93.942366 101.422711,89.9000974 97.3804408,89.9000974 L89.2958978,89.9000974 L89.2958978,41.3928856 Z" id="rect7223-2-4-9"></path>
                </g>
            </g>
        </g>
    </g>
</svg>